<?xml version="1.0" standalone="no"?>
<!DOCTYPE svg PUBLIC "-//W3C//DTD SVG 20010904//EN"
 "http://www.w3.org/TR/2001/REC-SVG-20010904/DTD/svg10.dtd">
<svg version="1.0" xmlns="http://www.w3.org/2000/svg"
 width="1024.000000pt" height="1024.000000pt" viewBox="0 0 1024.000000 1024.000000"
 preserveAspectRatio="xMidYMid meet">

<g transform="translate(0.000000,1024.000000) scale(0.100000,-0.100000)"
fill="#000000" stroke="none">
<path d="M0 5120 l0 -5120 5120 0 5120 0 0 5120 0 5120 -5120 0 -5120 0 0
-5120z m7343 3922 c109 -30 196 -75 275 -141 112 -95 188 -215 233 -366 26
-89 41 -360 37 -680 l-3 -230 -75 2 c-213 7 -496 66 -962 199 -201 57 -455
125 -565 149 -109 25 -211 49 -228 55 -16 5 -48 14 -71 19 l-41 11 1 137 c0
99 -5 157 -17 207 -86 343 -386 506 -673 365 -64 -32 -182 -144 -238 -227 -50
-75 -99 -209 -118 -322 -6 -41 -12 -76 -12 -77 -1 -1 -39 -6 -86 -12 -47 -6
-137 -21 -200 -32 l-115 -21 -60 35 c-111 65 -380 315 -474 442 -91 121 -120
145 -177 145 -134 0 -183 -120 -171 -418 8 -217 54 -379 129 -458 l30 -32 -34
-25 c-18 -13 -76 -48 -128 -78 -137 -76 -351 -219 -535 -356 -172 -130 -400
-324 -437 -373 -12 -16 -25 -30 -30 -30 -4 0 -8 27 -8 59 0 56 -1 59 -27 66
-16 4 -334 5 -707 3 l-679 -3 -27 -27 c-92 -92 -271 -4 -239 118 32 118 219
114 269 -6 l12 -28 666 -5 c367 -3 682 -8 700 -12 l32 -7 -2 238 -3 239 -45
-3 c-25 -2 -338 -5 -697 -8 l-652 -6 -7 -22 c-17 -56 -86 -116 -134 -116 -29
0 -90 33 -120 65 -46 49 -23 157 40 190 37 19 122 19 159 1 15 -8 33 -27 39
-42 13 -26 14 -27 80 -20 96 11 1012 7 1172 -4 74 -5 143 -9 153 -10 16 0 17
25 17 378 0 208 5 406 10 442 28 173 108 332 231 451 109 108 260 181 413 201
11 2 920 3 2020 3 l2001 0 78 -23z m-5623 -81 c0 -16 11 -21 53 -29 47 -9 42
-10 -63 -11 -63 0 -133 -5 -155 -10 -22 -6 -42 -8 -44 -5 -11 11 27 24 91 30
53 5 67 10 71 25 7 26 47 25 47 0z m244 -20 c15 -16 15 -19 1 -31 -8 -7 -15
-25 -15 -41 0 -22 5 -29 20 -29 28 0 45 36 31 66 -6 13 -7 24 -2 24 18 0 61
-54 61 -76 0 -29 -35 -54 -75 -54 -25 0 -36 8 -58 42 -29 45 -35 86 -15 106
17 17 32 15 52 -7z m-494 -37 c0 -37 -5 -51 -29 -75 -33 -32 -71 -38 -95 -13
-21 20 -20 32 4 71 19 32 67 61 103 62 14 1 17 -8 17 -45z m280 -95 c62 -14
101 -47 138 -117 42 -79 43 -131 3 -194 -71 -112 -202 -158 -304 -107 -101 51
-147 138 -132 249 6 43 14 58 58 101 79 78 130 93 237 68z m310 -88 c0 -77 1
-80 27 -93 40 -19 42 -46 4 -59 -17 -6 -32 -18 -32 -27 -1 -10 -3 -26 -4 -37
-6 -46 -6 -143 0 -178 8 -43 -6 -67 -40 -67 -33 0 -36 8 -18 52 18 46 16 51
-17 34 -22 -10 -25 -18 -23 -59 1 -43 -1 -47 -22 -47 -31 0 -46 26 -34 59 5
15 33 47 61 73 47 42 52 51 57 100 4 29 4 113 1 186 -3 83 -1 134 5 136 31 13
35 5 35 -73z m-696 -44 c-9 -139 15 -258 59 -290 16 -12 35 -34 43 -49 19 -37
18 -97 -1 -105 -22 -8 -26 -1 -34 59 -5 45 -9 53 -28 56 -19 3 -23 -1 -23 -23
0 -14 11 -37 25 -50 l24 -25 -23 0 c-12 0 -33 11 -45 24 -18 20 -22 33 -19 73
2 26 -1 85 -5 129 -8 72 -12 83 -33 93 -32 14 -32 49 1 61 14 5 25 11 25 13 0
12 23 123 27 130 11 18 12 0 7 -96z m4221 52 c109 -41 220 -184 259 -335 19
-73 22 -285 5 -366 -6 -29 -30 -93 -54 -143 -78 -163 -216 -269 -383 -297 -65
-11 -74 -10 -89 5 -28 28 -5 50 67 64 97 20 165 56 228 121 109 110 162 255
162 436 -1 153 -28 245 -100 341 -55 73 -132 116 -220 123 -64 4 -76 2 -134
-27 -161 -79 -251 -244 -249 -456 1 -143 37 -252 134 -411 50 -82 51 -85 34
-104 -24 -26 -49 -25 -111 4 -70 33 -123 82 -150 141 -40 84 -30 281 23 495
51 208 154 341 311 406 76 32 188 33 267 3z m3209 -85 c14 -5 16 -29 16 -161
0 -161 -7 -193 -40 -193 -19 0 -20 8 -20 168 0 117 4 172 12 180 14 14 12 14
32 6z m-4976 -51 c11 -27 27 -95 36 -151 24 -157 72 -333 117 -433 22 -49 37
-94 34 -99 -15 -24 -52 -10 -73 29 -28 50 -83 243 -117 411 -27 134 -50 210
-65 210 -4 0 -15 -43 -25 -95 -31 -167 -13 -314 69 -578 12 -36 12 -48 3 -45
-31 10 -97 192 -123 343 -20 110 -14 259 15 360 21 74 39 95 82 95 22 0 30 -8
47 -47z m4724 10 c94 -231 118 -295 113 -303 -3 -6 -17 -10 -30 -10 -17 0 -27
9 -39 40 l-16 40 -72 0 c-83 0 -94 -5 -103 -43 -6 -22 -13 -27 -36 -27 -27 0
-29 2 -23 28 4 15 13 39 20 54 25 50 104 238 104 248 0 5 15 10 33 10 30 0 36
-5 49 -37z m-6774 -338 c87 1 112 -5 76 -19 -9 -3 -36 -6 -62 -6 -34 0 -52 -6
-70 -22 l-24 -23 -15 23 c-14 20 -23 22 -99 22 -78 0 -84 2 -84 20 0 20 4 20
93 13 50 -4 134 -8 185 -8z m6670 -225 c4 -42 -12 -60 -35 -38 -14 14 -14 21
-3 48 16 38 34 34 38 -10z m-3584 -52 c-9 -24 -16 -73 -16 -110 -1 -56 5 -78
36 -143 20 -43 36 -84 36 -92 0 -9 -48 -63 -107 -121 -102 -99 -111 -105 -151
-106 -60 -2 -97 -40 -95 -98 2 -39 15 -60 44 -70 4 -2 5 -84 2 -183 l-6 -180
-81 -83 c-78 -81 -187 -170 -257 -211 l-34 -19 -87 58 c-212 142 -437 117
-624 -68 -94 -93 -115 -144 -122 -294 l-5 -108 72 -74 c41 -41 68 -77 62 -80
-6 -4 -50 -4 -98 0 l-88 6 -95 -99 c-52 -54 -117 -126 -145 -160 -45 -54 -55
-61 -94 -66 -50 -6 -71 -26 -71 -68 0 -31 16 -47 57 -55 44 -9 71 10 79 54 4
20 23 57 43 82 73 90 237 253 268 266 49 21 203 17 318 -7 78 -17 122 -20 200
-16 123 6 190 29 263 93 120 105 167 265 126 430 -9 36 -15 66 -13 67 2 2 29
20 59 42 74 51 225 182 276 238 l41 45 7 198 7 199 30 27 c21 20 29 36 29 61
0 31 13 47 125 155 69 67 125 126 125 132 0 20 27 9 60 -25 l33 -34 -141 -143
-142 -143 -4 -208 -3 -207 -37 -48 c-77 -99 -153 -181 -202 -217 l-51 -37 -12
-122 c-14 -151 -14 -153 4 -160 29 -11 45 22 45 93 0 38 3 89 6 115 6 40 12
50 38 63 49 24 296 311 296 343 0 9 -4 20 -10 26 -12 12 -14 59 -12 213 l2
123 131 132 c72 72 137 140 145 151 13 18 15 18 44 -10 16 -16 30 -32 30 -36
0 -5 -59 -67 -130 -138 -128 -128 -130 -131 -126 -168 3 -21 8 -87 11 -148 4
-65 12 -122 20 -139 8 -16 15 -32 15 -37 0 -4 -47 -59 -105 -123 -58 -64 -114
-134 -125 -156 -38 -74 -18 -164 43 -205 24 -15 25 -19 29 -177 l4 -162 -35
-31 c-19 -16 -47 -48 -63 -69 -15 -21 -28 -32 -28 -24 0 9 -11 36 -25 60 l-25
45 34 37 c19 20 45 50 57 67 l23 32 -30 -7 c-16 -4 -51 -29 -79 -56 -27 -26
-64 -55 -82 -64 -40 -20 -73 -62 -73 -93 0 -18 -62 -86 -252 -277 -305 -305
-389 -372 -491 -391 -60 -12 -45 -29 19 -22 121 12 226 91 527 395 l209 209
51 -20 c29 -12 53 -22 54 -22 2 -1 -111 -114 -250 -252 -261 -261 -402 -387
-474 -425 l-41 -22 -19 22 c-10 12 -31 28 -47 36 -26 13 -33 13 -57 0 -31 -15
-59 -61 -59 -94 0 -11 -3 -20 -7 -20 -8 0 -175 -30 -367 -64 -48 -9 -98 -22
-110 -28 -41 -22 -105 -81 -122 -114 l-19 -34 -100 -2 c-55 -1 -174 -1 -265 1
-179 4 -264 -7 -298 -39 -12 -11 -26 -20 -32 -20 -15 0 -12 -9 7 -28 16 -16
16 -16 10 1 -3 9 -2 17 3 17 6 0 10 -7 10 -16 0 -13 12 -15 68 -13 37 1 76 7
87 13 11 6 26 9 33 7 8 -1 20 4 29 11 9 8 39 12 76 11 33 -1 72 3 86 9 34 13
201 22 246 14 20 -4 33 -11 30 -17 -4 -5 -1 -9 5 -9 7 0 9 -7 6 -16 -3 -9 3
-27 14 -41 11 -14 17 -29 14 -34 -9 -15 -187 -10 -414 11 -280 26 -372 38
-383 49 -21 21 65 68 210 115 161 53 197 69 323 145 104 62 171 80 240 62 62
-16 92 -1 88 44 -3 26 -12 34 -78 67 -241 119 -539 38 -771 -209 -97 -104
-145 -176 -215 -322 -36 -75 -80 -164 -97 -199 -39 -80 -132 -168 -224 -214
-61 -30 -76 -33 -150 -32 -70 0 -90 5 -139 30 -64 33 -124 107 -124 154 l0 28
35 -32 c19 -18 56 -43 83 -57 41 -21 60 -24 147 -23 117 0 160 16 253 93 55
46 114 132 100 147 -4 3 -42 -25 -84 -64 -43 -39 -103 -83 -133 -98 -49 -24
-68 -28 -146 -28 -81 0 -96 3 -143 29 -34 18 -63 44 -82 73 -26 40 -30 54 -30
117 0 79 6 93 29 70 9 -9 50 -36 91 -60 88 -52 120 -56 243 -24 66 17 95 31
154 76 41 30 80 64 88 76 8 12 37 102 65 200 l51 178 129 125 c71 69 147 139
169 155 39 28 41 32 41 82 1 67 23 170 43 201 9 14 131 142 272 285 140 143
255 265 255 271 0 5 -5 10 -10 10 -15 0 -167 -145 -383 -363 -195 -198 -185
-182 -229 -369 -12 -53 -21 -65 -136 -183 -120 -123 -123 -125 -117 -88 17 99
99 414 119 459 15 32 62 92 121 155 53 57 115 130 138 161 39 53 44 57 73 52
18 -3 41 -1 52 5 27 14 45 63 40 106 -4 35 1 42 128 168 72 73 144 152 159
177 39 63 194 220 295 298 47 36 134 104 193 151 l109 86 -7 40 c-4 22 -7 80
-5 130 1 72 6 98 26 135 29 54 29 60 4 93 -42 53 -140 40 -140 -19 0 -36 24
-77 54 -94 24 -12 26 -18 26 -86 0 -64 -14 -144 -35 -196 -4 -9 -48 -47 -98
-85 -50 -37 -118 -89 -151 -114 -88 -67 -290 -276 -316 -328 -12 -24 -64 -84
-115 -133 -52 -50 -106 -107 -121 -129 -22 -33 -32 -39 -61 -39 -47 0 -102
-28 -116 -57 -9 -20 -7 -31 8 -59 12 -23 15 -38 9 -42 -23 -15 -287 -308 -299
-333 -14 -27 -73 -236 -191 -681 -40 -153 -80 -291 -88 -307 -26 -49 -134
-126 -153 -107 -11 10 13 174 47 326 61 269 200 762 235 830 40 78 186 272
218 289 50 26 77 58 77 90 0 32 5 39 224 286 198 223 200 225 229 225 61 0 97
36 102 102 2 32 9 43 42 66 47 32 186 151 332 282 59 52 126 112 150 132 25
21 42 41 38 44 -15 15 -82 -39 -500 -403 -45 -40 -78 -61 -87 -57 -60 23 -118
11 -145 -30 -16 -24 -16 -29 1 -71 l17 -46 -26 -27 c-14 -15 -40 -43 -58 -62
-17 -19 -84 -91 -148 -160 -64 -69 -133 -149 -154 -177 -25 -35 -53 -59 -80
-71 -57 -25 -69 -41 -58 -79 8 -28 5 -35 -33 -75 -106 -111 -177 -225 -215
-348 -116 -373 -201 -696 -236 -899 -21 -120 -40 -168 -76 -186 -38 -20 -82
-19 -109 3 l-23 18 43 190 c59 266 94 406 147 579 181 593 295 782 804 1331
229 246 386 385 679 599 74 54 155 115 180 135 25 20 72 52 105 70 33 18 112
62 175 98 292 165 631 316 800 357 106 26 321 63 372 64 l47 1 -15 -42z m1314
-170 c54 -58 52 -128 -5 -183 l-37 -36 -7 -292 c-4 -161 -8 -583 -8 -939 -1
-593 -2 -648 -18 -660 -9 -7 -41 -37 -70 -65 -29 -29 -56 -53 -58 -53 -3 0 -5
13 -5 29 0 19 13 43 39 72 l38 44 7 939 6 938 -24 19 c-62 49 -70 137 -15 183
42 35 125 37 157 4z m482 -49 c56 -57 47 -147 -21 -186 l-31 -18 1 -170 c0
-243 -16 -3979 -17 -3982 -1 -2 -13 -3 -25 -3 -24 0 -24 2 -30 137 -4 75 -7
1011 -7 2081 l0 1944 -24 19 c-51 40 -55 140 -7 183 45 41 117 38 161 -5z
m278 -135 c30 -20 52 -66 52 -105 0 -23 -9 -40 -35 -65 l-35 -33 0 -1393 c0
-1111 2 -1394 12 -1397 7 -2 30 -21 52 -43 36 -35 38 -41 33 -81 -6 -44 -51
-97 -82 -97 -13 0 -15 -58 -15 -442 0 -244 -3 -474 -7 -511 -5 -62 -8 -68 -27
-65 -19 3 -22 12 -27 93 -9 115 -9 529 0 754 6 174 6 174 -17 189 -56 37 -64
116 -15 168 l24 26 -2 787 c-1 432 -1 1064 1 1404 2 603 2 617 -17 617 -25 0
-61 34 -69 65 -10 39 5 95 31 121 29 29 107 33 143 8z m-972 -49 c29 -28 34
-39 34 -80 0 -41 -4 -51 -36 -80 l-35 -32 4 -874 c2 -481 8 -889 12 -907 7
-33 5 -35 -351 -391 -325 -325 -401 -393 -457 -414 -17 -7 -17 -6 0 24 10 16
78 94 152 172 74 78 233 246 353 374 l218 231 1 891 0 891 -41 38 c-34 33 -40
45 -40 80 0 43 35 97 73 111 34 13 77 0 113 -34z m399 -55 c39 -43 -19 -94
-82 -73 -42 14 -42 48 -1 73 42 25 60 25 83 0z m1362 -7 c3 -7 -43 -59 -100
-115 -58 -57 -138 -141 -178 -188 -81 -93 -108 -119 -125 -120 -12 0 -24 22
-24 45 0 20 122 166 239 288 102 105 106 108 145 105 21 -2 41 -8 43 -15z
m-489 -23 c39 -24 66 -80 57 -121 -4 -15 -20 -41 -36 -57 l-30 -29 10 -103 c6
-56 11 -147 11 -202 l0 -101 118 124 c64 68 171 180 237 249 66 69 148 156
181 194 60 69 61 70 95 60 19 -5 34 -15 34 -21 0 -14 -182 -209 -472 -507
l-224 -230 -22 22 c-21 22 -22 32 -27 258 l-5 235 -33 25 c-63 50 -81 127 -41
178 39 49 93 58 147 26z m928 -11 c3 -5 -57 -73 -133 -152 -76 -78 -226 -234
-333 -347 -107 -112 -291 -303 -407 -424 l-213 -219 0 -1341 c0 -1437 -3
-1592 -29 -1599 -41 -10 -41 -16 -41 486 0 363 4 498 14 546 11 53 11 75 0
135 -11 56 -14 250 -14 944 l0 872 29 28 c46 44 712 732 880 911 85 90 164
166 174 170 23 9 65 3 73 -10z m856 -16 c411 -6 417 -6 422 -27 11 -42 6 -65
-16 -71 -36 -12 -674 5 -808 21 -196 24 -281 9 -362 -64 -43 -38 -98 -108 -98
-124 0 -5 32 -8 70 -7 l70 2 10 38 c12 45 51 94 91 114 65 34 173 2 216 -64
60 -90 -1 -220 -111 -236 -65 -10 -102 2 -149 48 -42 41 -42 41 -130 45 -134
6 -123 13 -267 -148 -116 -129 -224 -244 -354 -375 -60 -60 -165 -170 -232
-242 l-123 -133 -3 -204 -3 -203 28 -13 c34 -15 87 -84 87 -114 0 -34 -36 -83
-79 -108 l-41 -23 0 -1087 0 -1088 -35 0 -35 0 0 1084 0 1085 21 6 c19 6 18 9
-15 41 -47 45 -54 88 -27 149 19 44 21 66 21 277 l0 230 88 91 c48 50 170 177
273 282 246 253 352 364 491 520 64 72 154 168 201 214 l86 84 93 8 c51 4 118
5 148 3 30 -2 243 -7 472 -11z m-3705 -20 c14 -20 10 -27 -63 -110 -42 -48
-97 -106 -121 -129 -36 -34 -43 -47 -43 -79 0 -29 7 -47 29 -70 27 -28 29 -35
33 -139 l5 -109 -30 -36 c-63 -74 -132 -141 -146 -141 -17 0 -61 39 -61 53 0
6 22 36 48 66 80 93 85 102 65 123 -12 14 -19 50 -25 136 -14 196 -18 186 135
335 72 70 138 126 145 125 8 -2 21 -13 29 -25z m208 -9 c17 -18 14 -40 -15
-90 -40 -71 -43 -99 -41 -394 l2 -286 -27 -14 c-15 -8 -83 -73 -151 -145
l-123 -130 0 -228 0 -228 -420 -424 c-406 -409 -455 -465 -404 -465 8 0 64 47
122 104 59 57 120 114 136 127 15 12 160 160 322 328 l294 306 0 225 0 225 78
85 c123 135 178 190 190 190 7 0 12 -17 12 -44 0 -40 -7 -52 -67 -126 -38 -46
-77 -94 -87 -107 -17 -23 -19 -44 -18 -256 l0 -232 -66 -75 c-36 -41 -138
-143 -226 -227 -184 -173 -428 -428 -457 -477 -13 -22 -34 -39 -62 -49 -69
-26 -217 -66 -266 -73 l-46 -6 -2 41 c0 23 -6 48 -12 55 -9 11 78 103 434 460
l446 446 -2 241 -1 240 73 63 c41 35 106 96 145 137 l71 74 6 229 c4 126 7
270 7 321 0 82 3 95 27 132 39 61 94 81 128 47z m-3018 -25 c49 -8 73 -16 73
-25 0 -8 -8 -14 -17 -14 -136 -4 -1317 -5 -1340 -2 -19 3 -33 10 -33 18 0 8 1
15 3 16 6 5 427 13 812 16 293 2 453 -1 502 -9z m2661 -814 c-134 -131 -143
-138 -149 -115 -17 60 -10 97 22 125 18 14 62 59 99 100 l66 73 -4 121 c-4
112 -3 124 15 144 50 55 52 100 7 148 l-25 26 53 56 53 55 3 -297 3 -296 -143
-140z m446 695 c7 0 25 -11 40 -25 20 -18 26 -34 26 -64 0 -87 -81 -122 -149
-65 -45 37 -43 84 4 131 22 22 41 33 51 29 9 -3 21 -6 28 -6z m3769 -19 c26
-4 50 -10 53 -14 9 -9 -5 -45 -21 -51 -25 -9 -676 -9 -686 1 -4 4 -10 20 -11
33 -3 23 1 25 52 31 84 9 559 9 613 0z m-2965 -81 c46 -68 14 -162 -63 -188
-52 -17 -88 -7 -125 34 -59 68 -32 164 60 210 l45 23 30 -23 c16 -13 40 -38
53 -56z m714 28 c3 -62 -3 -83 -33 -113 l-29 -31 0 -257 0 -257 -25 -16 c-13
-8 -29 -13 -35 -9 -6 4 -10 108 -10 306 l0 299 23 11 c12 6 37 30 55 55 18 24
37 44 42 44 6 0 11 -15 12 -32z m-374 -1910 l-3 -1903 -32 -3 -32 -3 -2 473
c-5 1895 -3 3328 6 3332 6 3 22 5 38 5 l27 1 -2 -1902z m-1137 1752 c4 -14 7
-250 8 -525 1 -542 -3 -605 -54 -780 -74 -255 -321 -554 -597 -723 -114 -70
-203 -111 -366 -168 -225 -79 -360 -108 -737 -159 -104 -14 -215 -30 -245 -35
-88 -16 -516 -25 -524 -11 -4 7 3 33 16 59 l23 47 85 2 c155 5 568 62 711 98
30 8 105 19 165 25 275 25 578 116 813 243 107 58 122 70 237 192 157 165 204
227 204 269 l-1 31 -25 -30 c-256 -298 -323 -359 -476 -436 -178 -89 -221
-102 -198 -59 14 26 699 710 710 710 6 0 10 45 10 110 0 80 3 111 13 117 8 4
21 20 30 34 17 25 16 26 -13 52 -28 26 -30 32 -30 101 l0 73 56 69 c31 38 72
83 91 100 l36 31 -12 76 c-17 106 -17 482 0 503 19 23 62 14 70 -16z m2621
-15 c28 -35 85 -47 238 -49 118 -1 139 1 170 19 33 19 54 20 382 21 324 1 349
0 364 -17 23 -26 11 -47 -42 -70 -36 -17 -57 -19 -97 -14 -112 15 -461 17
-572 4 -164 -20 -347 -18 -418 4 -57 18 -59 18 -92 -3 -34 -21 -113 -107 -170
-185 -16 -22 -72 -84 -123 -137 l-94 -97 1 -635 2 -634 -28 -34 c-16 -18 -54
-67 -85 -108 -31 -41 -68 -86 -83 -100 l-27 -25 3 -740 4 -740 -28 -13 c-16
-8 -32 -11 -35 -7 -4 4 -8 354 -10 778 l-2 771 38 40 c22 23 52 59 68 81 15
22 45 60 65 85 l37 45 3 155 c2 85 2 368 0 629 l-2 475 78 85 c44 47 122 138
175 201 122 147 220 240 251 240 5 0 18 -11 29 -25z m-1808 -71 c8 -21 8
-3353 -1 -3476 -6 -94 -7 -98 -30 -98 l-23 0 -2 793 c-6 2223 -4 2777 12 2787
22 14 37 12 44 -6z m-146 -712 l-3 -709 -45 -49 c-63 -69 -575 -586 -753 -761
-137 -135 -149 -144 -162 -127 -15 21 -5 39 56 104 19 20 59 63 88 95 63 68
669 693 719 740 l32 31 0 676 c0 602 2 678 16 692 8 9 24 16 35 16 19 0 20
-10 17 -708z m-3855 558 c22 -6 37 -14 34 -16 -3 -3 -298 -6 -655 -7 -358 -1
-653 -5 -657 -9 -4 -3 0 -28 7 -55 l14 -48 589 -6 c325 -3 592 -6 594 -7 3 -1
-6 -13 -19 -27 l-23 -25 -581 3 c-551 4 -582 3 -605 -15 -35 -26 -129 -25
-165 3 -29 23 -56 68 -56 94 0 32 32 85 64 104 27 17 51 19 174 19 79 0 147 3
150 7 12 13 1093 -2 1135 -15z m7014 -42 c51 -51 54 -96 11 -177 -56 -108 -42
-105 -497 -109 l-384 -4 -40 -38 c-22 -21 -53 -44 -69 -51 -43 -18 -99 2 -140
50 l-34 39 -132 3 -133 3 -40 -41 -41 -40 -1 -587 -2 -586 578 0 577 0 0 25
c0 95 117 170 226 146 78 -18 144 -93 144 -165 0 -95 -73 -176 -165 -184 -73
-6 -116 11 -167 66 l-44 47 -205 -3 c-112 -1 -376 -6 -587 -11 -369 -8 -384
-9 -412 -30 -16 -11 -34 -21 -40 -21 -17 0 -11 58 10 100 19 38 20 59 20 648
l0 608 31 30 c17 16 63 67 102 114 40 47 76 88 81 91 4 4 5 20 2 35 -4 18 -1
36 6 47 12 16 52 18 558 20 300 2 557 0 571 -5 17 -6 36 -4 60 7 54 24 115 14
156 -27z m-7260 -295 c-10 -11 -31 -16 -58 -15 -56 3 -64 12 -11 12 23 0 42 4
42 8 0 4 10 8 22 9 20 2 20 1 5 -14z m-1097 -23 c31 -9 60 -38 90 -90 8 -13
70 -15 459 -15 410 1 449 -1 441 -16 -5 -8 -15 -20 -22 -26 -8 -7 -163 -12
-444 -14 l-431 -4 -16 -27 c-34 -60 -117 -84 -177 -53 -95 49 -95 189 0 237
40 21 52 22 100 8z m3873 -529 c-142 -167 -727 -740 -866 -847 -46 -36 -66
-68 -67 -106 0 -34 -15 -42 -126 -68 -170 -40 -650 -98 -701 -85 -17 4 -23 15
-28 49 -4 25 -4 49 0 55 3 7 44 11 99 11 58 0 144 10 227 25 74 14 170 28 214
32 67 4 86 10 115 33 20 15 63 41 95 58 33 17 96 60 140 95 107 87 593 578
637 645 19 29 68 81 109 117 l74 64 -4 169 -3 169 32 6 c17 4 46 21 63 39 l32
33 3 -219 2 -218 -47 -57z m-1070 478 c25 -7 42 -19 50 -36 10 -23 8 -28 -16
-49 -42 -36 -135 -29 -150 10 -10 24 10 65 35 76 30 12 37 12 81 -1z m5645
-69 c31 -19 41 -43 22 -55 -5 -3 -148 -8 -317 -11 -169 -3 -501 -9 -738 -13
-236 -4 -438 -6 -447 -3 -23 6 -30 28 -17 56 14 29 46 37 102 24 27 -6 168 -5
392 2 507 16 499 16 745 18 209 2 227 0 258 -18z m-1967 -137 c38 -23 63 -75
55 -118 -4 -18 -20 -51 -36 -74 -28 -38 -30 -47 -30 -132 l0 -92 41 -44 c38
-41 41 -49 36 -85 -11 -84 -92 -124 -160 -79 -71 46 -80 111 -24 169 36 36 36
38 39 127 l3 90 -41 26 c-53 34 -80 95 -64 145 25 74 113 107 181 67z m1640
-26 c75 -50 99 -129 59 -195 -21 -34 -87 -72 -125 -72 -40 0 -105 39 -126 74
l-21 36 -206 -7 -207 -6 -33 -38 c-57 -66 -137 -74 -188 -18 -14 16 -31 19
-96 19 -68 0 -84 -3 -111 -24 -61 -45 -101 -41 -156 18 -53 56 3 166 85 166
30 0 43 -8 78 -46 41 -44 43 -45 96 -42 50 3 55 5 72 38 51 94 137 119 200 57
18 -17 38 -39 43 -48 9 -13 34 -14 212 -4 l203 10 32 39 c55 67 129 84 189 43z
m-7382 -383 c-157 -438 -223 -662 -288 -969 -21 -99 -43 -190 -50 -202 -17
-32 -48 -28 -87 11 -38 38 -38 41 2 216 36 154 87 312 159 490 110 273 269
570 292 546 2 -2 -10 -43 -28 -92z m7625 -23 c46 -39 55 -122 19 -163 -27 -30
-80 -34 -115 -8 -31 23 -32 23 -317 19 -284 -4 -286 -4 -289 17 -6 45 15 49
279 52 l248 3 37 45 c53 66 91 76 138 35z m-808 -59 c60 -44 68 -57 66 -119
-3 -102 -54 -155 -155 -160 -72 -4 -87 5 -136 82 -44 69 -42 113 6 166 45 50
62 58 129 58 41 1 59 -5 90 -27z m-449 1 c72 -34 94 -117 47 -173 -58 -68
-127 -75 -184 -19 -24 25 -30 39 -30 75 0 51 13 82 44 104 44 32 76 35 123 13z
m-624 -298 c27 -37 11 -78 -80 -203 l-78 -107 -1 -835 0 -835 -27 -9 c-15 -5
-28 -8 -31 -5 -2 2 -5 398 -7 879 l-4 875 60 83 c33 46 76 105 95 133 19 27
39 49 45 49 5 0 18 -12 28 -25z m-1365 -95 c-8 -24 -7 -36 6 -55 21 -32 65
-34 73 -4 4 16 8 17 14 7 12 -18 11 -91 -1 -122 -5 -15 -12 -352 -15 -833 -4
-445 -8 -830 -10 -858 -3 -45 -5 -50 -29 -53 l-26 -3 0 840 c0 827 0 840 -20
851 -11 6 -31 27 -45 48 -42 61 -28 167 26 205 30 22 40 13 27 -23z m-152
-289 c19 -11 36 -33 43 -53 23 -72 31 -320 24 -749 -3 -239 -7 -522 -7 -629
l-1 -195 -30 -3 -30 -3 3 730 3 730 -44 -21 -44 -22 -7 -420 c-6 -356 -10
-425 -23 -454 -9 -19 -16 -40 -16 -48 0 -8 -4 -14 -8 -14 -4 0 -10 -12 -12
-27 -4 -28 -7 216 -8 696 -1 171 3 267 10 274 7 7 3 19 -14 39 -29 34 -33 84
-10 128 30 58 112 77 171 41z m2554 -37 c17 -15 60 -64 96 -110 76 -98 97
-114 141 -114 26 0 37 7 57 36 33 49 73 74 119 74 78 0 131 -52 129 -127 -1
-86 -67 -149 -146 -139 -40 5 -91 44 -102 78 -5 17 -13 18 -63 12 l-57 -6
-117 123 -116 123 -253 -3 c-237 -3 -254 -2 -270 16 -12 12 -14 23 -8 33 8 12
53 16 252 20 134 3 257 7 275 8 22 1 41 -6 63 -24z m-653 -18 c29 -25 53 -82
53 -127 0 -34 -34 -85 -69 -104 -17 -8 -51 -15 -76 -15 -129 0 -175 182 -63
250 48 29 118 27 155 -4z m-2144 -203 c-3 -7 -9 -13 -13 -13 -5 0 -70 -61
-145 -136 -75 -75 -139 -133 -143 -129 -3 3 0 10 8 15 21 13 3 12 -22 -1 -44
-23 -25 5 79 123 60 68 126 145 147 171 l39 48 27 -33 c15 -18 25 -38 23 -45z
m-1004 -38 c87 -58 170 -130 385 -333 230 -218 381 -412 496 -636 48 -95 133
-288 154 -349 6 -18 -35 -19 -1251 -14 -1103 3 -1270 6 -1356 20 -258 43 -458
201 -553 435 -57 141 -74 235 -85 466 -5 120 -9 220 -7 221 2 1 95 -2 208 -7
295 -14 739 -3 930 21 499 64 808 134 950 216 14 8 30 14 36 15 6 0 48 -25 93
-55z m3785 -48 c60 -57 60 -117 0 -174 -46 -43 -98 -45 -145 -5 l-33 27 -327
0 -327 0 -6 -44 c-3 -24 -6 -57 -6 -72 l0 -29 515 -2 c283 -2 583 -3 667 -3
l152 0 25 48 c34 67 79 99 146 105 30 2 66 1 80 -2 44 -11 111 -81 125 -130
10 -38 9 -49 -10 -95 -26 -59 -74 -106 -120 -116 -77 -17 -176 26 -216 94
l-18 31 -666 -2 -665 -3 3 -300 c3 -286 2 -301 -17 -332 -26 -41 -60 -61 -62
-36 -6 81 -4 953 2 971 10 27 23 28 57 3 25 -17 45 -18 331 -11 l303 6 19 25
c10 13 19 27 19 31 0 14 75 47 107 48 22 0 42 -10 67 -33z m-2780 -88 c14 -11
26 -25 26 -31 0 -13 -157 -169 -195 -194 -21 -14 -27 -15 -20 -4 8 13 7 13 -8
1 -9 -7 -17 -11 -17 -7 0 3 -13 -8 -30 -26 -17 -19 -30 -27 -30 -19 0 18 37
67 118 155 35 38 72 86 83 107 22 44 35 48 73 18z m22 -310 c36 -33 34 -110
-2 -138 -37 -29 -94 -28 -121 2 -53 57 -54 88 -8 134 31 31 40 35 72 30 20 -4
46 -16 59 -28z m2842 -136 c33 -38 73 -83 89 -102 l29 -34 46 27 c63 36 102
34 144 -8 40 -40 45 -89 16 -146 -20 -41 -53 -60 -106 -60 -33 0 -45 7 -80 43
-22 24 -56 63 -73 88 -18 24 -57 71 -87 104 l-54 60 -383 6 c-211 3 -394 9
-406 14 -13 4 -23 12 -23 19 0 6 10 18 23 26 18 12 87 16 387 20 201 3 377 7
392 8 22 2 38 -11 86 -65z m-178 -99 c109 -65 60 -244 -67 -244 -59 0 -99 25
-124 77 l-21 43 -189 0 c-156 0 -191 3 -195 14 -3 8 -2 22 3 31 8 13 39 16
198 20 182 4 189 5 214 28 14 13 35 29 46 35 30 17 103 14 135 -4z m-4571
-976 c13 -29 63 -150 111 -268 48 -118 97 -237 109 -263 11 -27 21 -53 21 -58
0 -5 -29 -9 -65 -9 l-64 0 -28 58 -28 57 -108 6 c-155 9 -167 5 -192 -61 l-21
-55 -67 -3 c-62 -3 -67 -1 -67 18 0 12 16 58 35 103 19 45 51 125 71 177 31
79 65 163 134 328 9 19 17 22 73 22 l63 0 23 -52z m877 -277 l6 -321 -70 0
c-50 0 -71 4 -75 14 -3 7 -65 94 -137 192 -73 99 -135 186 -139 194 -3 8 -8
-77 -11 -190 l-5 -205 -65 0 -65 0 -3 318 -2 317 59 0 59 0 54 -67 c30 -38
102 -132 161 -211 l106 -142 -6 209 -6 210 64 3 c35 2 65 2 67 2 2 -1 5 -146
8 -323z m594 242 c23 -49 62 -136 87 -195 25 -60 49 -108 53 -108 4 0 18 26
31 58 12 31 46 107 75 168 28 60 54 120 58 131 6 19 16 22 91 25 l85 3 0 -322
0 -323 -65 0 -65 0 0 200 c0 110 -3 200 -8 200 -4 0 -18 -28 -31 -62 -35 -94
-119 -269 -138 -290 -19 -21 -56 -24 -71 -5 -5 6 -30 59 -55 117 -25 58 -58
133 -75 167 l-30 63 -7 -195 -7 -195 -65 0 -65 0 4 318 3 317 60 6 c33 3 67 6
76 7 11 1 30 -25 59 -85z m957 70 c3 -10 21 -53 40 -95 56 -129 203 -516 203
-537 0 -3 -31 -5 -68 -3 l-68 3 -19 55 c-10 30 -24 59 -31 65 -9 7 -54 8 -141
2 l-128 -8 -22 -55 -22 -55 -70 -3 c-39 -2 -71 1 -71 5 0 4 43 114 96 243 81
199 154 388 154 397 0 2 32 3 70 3 58 0 72 -3 77 -17z m453 -242 l5 -254 153
2 152 2 0 -70 0 -71 -225 0 -225 0 0 323 0 322 67 0 68 0 5 -254z m-1740 6 c0
-134 3 -278 6 -320 l7 -77 -72 0 c-39 0 -71 3 -71 8 -1 4 -3 148 -5 320 l-5
312 70 0 70 0 0 -243z m-2365 -40 c57 -139 58 -147 31 -147 -15 0 -27 9 -34
25 -10 21 -18 25 -57 25 -46 0 -47 -1 -60 -47 -2 -6 -13 -9 -25 -6 -24 6 -24
8 27 138 49 124 52 129 68 115 7 -6 30 -52 50 -103z m4763 76 c41 -105 82
-213 82 -218 0 -3 -9 -5 -20 -5 -12 0 -25 10 -32 25 -10 22 -17 25 -65 25 -50
0 -53 -1 -53 -25 0 -20 -5 -25 -26 -25 -30 0 -30 1 29 140 55 131 63 139 85
83z m-4493 2 c34 -33 34 -83 0 -115 -16 -15 -41 -24 -75 -28 l-51 -5 6 -38 c6
-37 5 -39 -19 -39 l-26 0 0 109 c0 60 -3 116 -6 125 -5 14 5 16 70 16 68 0 80
-3 101 -25z m230 0 c57 -56 18 -129 -75 -144 -32 -6 -35 -9 -38 -44 -3 -30 -7
-37 -25 -37 -21 0 -22 3 -20 112 1 62 5 118 7 125 4 9 26 13 66 13 51 0 65 -4
85 -25z m4550 0 c23 -22 30 -46 26 -85 -3 -25 -40 -49 -86 -56 l-45 -6 0 -44
c0 -24 -3 -44 -7 -44 -29 1 -35 23 -40 139 l-6 121 67 0 c58 0 70 -3 91 -25z
m234 -1 c27 -34 27 -88 1 -114 -18 -18 -36 -25 -85 -32 -15 -2 -21 -12 -23
-40 -2 -25 -9 -37 -22 -41 -25 -6 -29 15 -29 146 l0 107 69 0 c62 0 70 -2 89
-26z m-3976 -633 c34 -17 76 -43 92 -56 29 -24 29 -26 11 -37 -11 -6 -35 -25
-55 -43 l-35 -32 -43 30 c-63 45 -143 49 -217 13 -46 -22 -59 -35 -80 -78 -14
-29 -26 -66 -26 -82 1 -48 33 -109 80 -149 48 -41 87 -52 160 -45 43 4 62 13
115 52 9 7 24 0 48 -21 20 -17 44 -36 54 -41 16 -10 14 -14 -22 -46 -22 -20
-64 -48 -93 -62 -128 -65 -331 -8 -422 118 -102 141 -88 305 34 415 87 78 158
104 269 99 51 -3 82 -11 130 -35z m630 6 c63 -29 123 -87 162 -159 26 -46 30
-63 30 -133 0 -69 -4 -88 -29 -138 -33 -65 -101 -134 -167 -168 -36 -20 -59
-24 -129 -24 -73 0 -93 4 -142 28 -122 60 -190 160 -196 289 -4 65 0 85 21
131 14 30 41 72 60 94 37 41 119 91 171 104 54 14 163 2 219 -24z m732 -1 c28
-13 68 -38 88 -56 l38 -33 -23 -15 c-13 -8 -37 -28 -55 -45 -30 -28 -32 -28
-42 -9 -25 47 -152 69 -224 38 -76 -31 -118 -122 -99 -212 14 -66 44 -108 97
-134 80 -39 225 -18 225 32 0 13 3 34 7 47 l6 24 -81 -6 -82 -5 0 63 0 63 138
-5 c75 -3 138 -6 138 -7 1 0 5 -58 9 -127 l7 -127 -59 -40 c-33 -22 -83 -48
-111 -57 -113 -37 -265 1 -350 88 -145 148 -111 410 66 510 30 16 68 34 85 38
53 13 166 1 222 -25z m426 -3 c9 -17 61 -91 115 -165 55 -73 115 -153 133
-178 l33 -45 -5 208 -5 207 69 0 69 0 0 -319 0 -318 -31 -7 c-80 -16 -78 -17
-180 136 -52 78 -121 169 -154 202 l-60 59 -3 -201 -2 -202 -65 0 -65 0 0 103
c0 57 -3 205 -7 328 l-6 224 74 0 c73 0 74 0 90 -32z m1299 -30 c0 -46 0 -46
-137 -201 -97 -110 -203 -240 -203 -250 0 -4 76 -6 170 -4 l170 3 0 -64 c0
-59 -2 -65 -22 -71 -13 -3 -135 -6 -272 -6 l-248 0 4 53 c4 50 11 62 113 192
60 77 134 169 164 205 l54 65 -149 5 -149 5 0 60 0 59 235 4 c129 2 240 5 245
6 16 5 25 -16 25 -61z m558 -5 l3 -65 -149 -7 c-81 -4 -156 -4 -165 0 -15 5
-17 -1 -17 -44 0 -28 -3 -57 -6 -66 -5 -14 11 -16 145 -16 l151 0 0 -60 0 -60
-145 0 -145 0 0 -65 0 -65 165 0 165 0 0 -70 0 -70 -232 2 -233 3 -3 325 -2
325 232 -1 233 -2 3 -64z m521 27 c68 -38 103 -88 109 -159 7 -92 -35 -173
-105 -202 l-33 -14 47 -68 c25 -37 61 -88 80 -113 18 -26 33 -49 33 -53 0 -3
-36 -6 -80 -6 l-80 0 -31 53 c-17 28 -46 76 -64 106 l-34 53 -63 0 -63 0 -3
-100 -3 -101 -30 -6 c-16 -4 -47 -4 -69 0 l-40 7 0 317 c0 175 2 320 4 322 2
2 87 2 188 -1 180 -5 184 -5 237 -35z m-5464 24 c100 -27 170 -113 168 -205
-1 -28 -9 -66 -17 -83 -21 -39 -82 -101 -101 -101 -8 0 -15 -2 -15 -5 0 -10
64 -113 101 -162 55 -73 52 -83 -18 -83 -32 0 -67 3 -78 6 -18 4 -100 132
-121 187 -5 14 -18 17 -69 17 l-63 0 -7 -105 -7 -105 -64 0 -64 0 0 173 c0 96
-3 242 -7 325 l-6 152 164 0 c90 0 182 -5 204 -11z m745 -54 l0 -65 -63 0
c-35 0 -112 -3 -170 -7 l-107 -6 0 -61 0 -61 145 3 145 3 0 -64 0 -64 -142 1
-142 1 -2 -62 -3 -63 132 -1 c73 -1 149 -1 170 0 l37 3 0 -71 0 -71 -240 0
-240 0 0 325 0 325 240 0 240 0 0 -65z m3014 -97 c4 -88 4 -235 0 -325 l-7
-163 -66 0 -67 0 3 318 c2 174 3 320 3 325 0 4 29 7 64 7 l63 0 7 -162z m181
-767 c143 -48 215 -133 215 -256 0 -107 -63 -200 -174 -258 l-61 -32 -1320 -3
c-936 -2 -1339 0 -1385 8 -122 21 -210 91 -251 200 -10 27 -19 67 -19 88 0 83
74 183 172 233 33 17 68 23 153 28 61 3 677 6 1370 6 1025 -1 1267 -3 1300
-14z"/>
<path d="M6981 8789 c-22 -9 -23 -13 -17 -56 10 -78 23 -89 112 -96 42 -4 97
-7 122 -7 88 0 175 -67 208 -158 8 -23 13 -86 14 -165 0 -122 1 -129 25 -152
18 -19 35 -25 68 -25 70 0 72 7 71 206 -2 218 -13 255 -95 335 -82 81 -148
111 -268 120 -127 11 -211 10 -240 -2z"/>
<path d="M3177 8779 c-106 -25 -210 -108 -258 -205 -30 -61 -32 -72 -37 -207
-7 -212 10 -251 100 -233 56 11 58 17 58 159 0 166 9 197 80 269 65 65 88 73
235 83 115 7 143 21 163 80 21 65 20 65 -150 64 -84 -1 -170 -5 -191 -10z"/>
<path d="M994 7576 c-28 -24 -28 -26 -14 -53 9 -15 28 -34 43 -43 32 -18 55
-8 76 35 33 67 -46 112 -105 61z"/>
<path d="M1000 7140 c-11 -11 -20 -26 -20 -34 0 -25 41 -66 66 -66 51 0 83 69
48 104 -22 22 -70 20 -94 -4z"/>
<path d="M1397 8903 c-11 -20 -15 -60 -7 -72 7 -12 11 -12 24 -2 21 17 22 81
2 81 -8 0 -17 -3 -19 -7z"/>
<path d="M1582 8770 c-47 -20 -92 -105 -92 -174 0 -43 36 -111 76 -145 79 -65
162 -61 241 12 53 49 75 88 75 133 0 44 -43 116 -89 151 -31 24 -47 28 -112
30 -42 2 -87 -2 -99 -7z m180 -57 c17 -15 38 -45 49 -65 20 -40 26 -98 9 -98
-6 0 -16 -12 -22 -26 -14 -31 -75 -64 -118 -64 -38 0 -80 21 -100 50 -8 13
-21 29 -28 36 -7 8 -12 24 -11 37 1 12 -2 31 -6 41 -6 13 -4 21 3 24 6 2 9 9
6 15 -2 7 3 21 12 32 14 18 15 18 10 2 -12 -37 7 -38 31 -2 13 20 34 40 46 45
35 15 88 3 119 -27z"/>
<path d="M1610 8682 c-34 -33 -40 -45 -40 -79 0 -45 34 -89 77 -100 33 -8 96
12 129 41 23 19 26 28 20 58 -3 19 -22 53 -42 76 -48 57 -87 58 -144 4z"/>
<path d="M8485 8545 c-4 -11 -15 -41 -25 -67 l-19 -48 55 0 c29 0 54 3 53 8 0
4 -13 34 -29 67 -23 49 -29 56 -35 40z"/>
<path d="M4492 7784 c-24 -24 -58 -43 -106 -59 -39 -12 -136 -53 -216 -90
-124 -57 -247 -112 -411 -181 -35 -15 -37 -18 -43 -76 -3 -34 -6 -79 -6 -102
-1 -58 -33 -125 -83 -168 l-42 -36 0 -97 0 -97 -55 -49 c-30 -27 -98 -79 -152
-117 -126 -88 -328 -268 -328 -293 0 -36 18 -25 165 105 100 88 373 294 422
319 67 35 213 60 375 65 l158 4 35 -31 c63 -55 134 -35 193 55 26 38 32 58 32
99 0 52 -24 150 -42 173 -18 21 -125 15 -168 -9 -48 -27 -61 -55 -68 -152 -3
-44 -10 -80 -16 -82 -6 -2 -72 -9 -146 -14 -74 -6 -181 -20 -238 -32 -57 -11
-106 -18 -109 -15 -4 3 -8 41 -11 84 -5 94 -22 78 203 182 321 149 530 257
610 317 174 131 201 191 33 73 -178 -125 -678 -374 -703 -349 -14 14 -20 199
-6 199 11 0 190 82 446 205 66 32 149 68 184 80 l65 22 20 -24 c12 -14 40 -28
65 -34 50 -11 74 3 97 58 24 57 -15 103 -87 103 -22 0 -41 -10 -67 -36z m-140
-636 c32 -26 48 -63 48 -109 0 -77 -4 -81 -57 -57 -43 19 -77 20 -114 4 -12
-5 -18 0 -22 22 -7 36 1 92 16 113 28 37 98 52 129 27z"/>
<path d="M4654 6532 c-14 -8 -34 -129 -34 -200 l0 -50 -72 -54 c-40 -30 -117
-96 -171 -147 -55 -50 -112 -98 -127 -106 -24 -12 -30 -23 -35 -62 -14 -115
-8 -105 -151 -240 -151 -143 -175 -160 -289 -203 -112 -43 -123 -49 -145 -87
-22 -38 -44 -48 -133 -63 -142 -25 -141 -25 -171 10 -15 18 -29 31 -31 28 -2
-2 -7 -22 -10 -44 -6 -32 -3 -43 14 -58 19 -18 24 -18 101 -2 44 9 89 16 100
16 10 0 55 11 98 25 67 21 81 30 91 54 14 31 18 34 143 87 89 37 143 78 356
274 l72 67 0 67 c0 62 3 70 28 91 15 13 54 47 87 75 33 28 111 94 173 146
l112 96 0 134 c0 130 1 135 23 144 20 8 20 9 2 9 -11 0 -25 -3 -31 -7z"/>
<path d="M2968 6354 c-23 -12 -28 -21 -28 -55 0 -99 70 -135 133 -68 34 37 39
112 8 129 -28 14 -81 12 -113 -6z"/>
<path d="M3213 6240 c-28 -12 -36 -41 -23 -88 l10 -39 -92 -90 c-51 -49 -122
-116 -158 -149 -36 -32 -109 -101 -163 -151 -53 -51 -114 -101 -135 -112 -44
-22 -77 -57 -64 -65 5 -3 41 10 80 29 54 27 108 71 234 189 91 85 200 193 244
240 59 65 88 89 116 97 54 14 71 35 64 78 -9 59 -56 84 -113 61z"/>
<path d="M3351 5834 c-35 -29 -39 -59 -16 -104 15 -29 15 -30 -17 -46 -67 -35
-138 -107 -138 -142 0 -14 60 33 135 105 35 34 46 38 90 38 l50 0 25 51 25 51
171 9 171 9 24 -52 24 -51 -140 -5 c-77 -3 -171 -5 -210 -4 -63 2 -70 0 -81
-21 -17 -33 -1 -89 34 -125 l30 -30 31 34 c17 19 36 48 42 65 12 30 13 30 118
42 216 25 272 47 287 115 5 26 2 35 -26 60 -28 25 -38 28 -69 23 -20 -4 -124
-11 -231 -16 -160 -7 -199 -6 -222 6 -40 21 -73 17 -107 -12z"/>
<path d="M3181 5504 c-18 -13 -38 -15 -89 -11 -88 7 -305 -8 -406 -28 -74 -15
-215 -79 -203 -92 3 -2 42 7 86 21 117 37 299 58 461 54 128 -3 137 -5 178
-31 59 -38 92 -50 92 -34 0 28 41 55 110 72 39 9 81 26 93 37 l22 19 -30 -6
c-164 -36 -157 -36 -183 -10 -30 30 -95 34 -131 9z"/>
<path d="M6068 7759 c-22 -12 -23 -42 -3 -59 35 -29 85 26 53 58 -14 14 -27
15 -50 1z"/>
<path d="M6542 7708 c-20 -20 -14 -48 14 -60 23 -11 28 -10 40 7 22 29 14 59
-16 63 -14 2 -31 -3 -38 -10z"/>
<path d="M6831 7562 c-14 -27 8 -55 40 -50 19 2 24 9 24 33 0 25 -4 31 -27 33
-18 2 -30 -3 -37 -16z"/>
<path d="M6863 4544 c-20 -32 -8 -59 28 -59 32 0 59 46 40 69 -20 24 -48 19
-68 -10z"/>
<path d="M5856 7541 c-21 -23 -20 -44 3 -65 34 -31 74 10 52 52 -15 28 -37 33
-55 13z"/>
<path d="M7158 7443 c-42 -11 -27 -77 16 -71 27 4 47 55 26 68 -8 6 -17 9 -20
9 -3 -1 -13 -3 -22 -6z"/>
<path d="M8412 7267 c-29 -31 -28 -72 3 -102 30 -31 66 -32 99 -2 38 34 41 60
10 96 -33 39 -80 42 -112 8z"/>
<path d="M7213 5758 c-19 -24 -22 -46 -8 -64 11 -16 17 -16 39 -6 17 8 26 19
26 35 0 39 -36 62 -57 35z"/>
<path d="M5555 7219 c-5 -13 -1 -27 8 -36 13 -13 17 -13 37 7 17 17 19 24 9
36 -17 21 -47 17 -54 -7z"/>
<path d="M6276 7161 c-33 -37 -3 -80 47 -67 30 7 43 37 27 66 -14 25 -51 26
-74 1z"/>
<path d="M1002 6780 c-36 -15 -47 -51 -27 -89 31 -61 101 -59 125 5 14 36 13
42 -15 69 -25 26 -45 30 -83 15z"/>
<path d="M9323 6730 c-27 -11 -39 -51 -23 -79 22 -42 100 -13 100 38 0 46 -28
61 -77 41z"/>
<path d="M8130 6664 c-63 -98 -63 -98 53 -102 l97 -3 21 35 c28 48 65 70 120
70 50 0 96 -26 118 -67 l13 -24 251 3 c328 3 480 12 473 28 -3 6 -15 37 -28
68 l-23 58 -526 0 -526 0 -43 -66z"/>
<path d="M8390 6580 c-36 -36 -18 -90 30 -90 29 0 60 30 60 57 0 18 -37 53
-55 53 -8 0 -24 -9 -35 -20z"/>
<path d="M9215 5305 c-55 -54 -13 -139 67 -133 75 6 108 88 54 135 -37 31 -89
31 -121 -2z"/>
<path d="M995 6377 c-27 -23 -28 -26 -15 -56 31 -77 120 -62 120 20 0 52 -62
74 -105 36z"/>
<path d="M7467 6142 c-32 -35 -14 -72 35 -72 21 0 29 6 34 24 13 53 -35 86
-69 48z"/>
<path d="M7490 5705 c-10 -12 -10 -21 -2 -40 14 -30 47 -33 62 -5 23 42 -30
81 -60 45z"/>
<path d="M9096 6108 c-22 -30 -20 -54 5 -79 29 -29 70 -22 88 15 12 25 11 31
-6 55 -26 35 -66 39 -87 9z"/>
<path d="M8410 6090 c-26 -26 -26 -62 0 -85 20 -18 21 -18 48 2 33 25 42 71
16 90 -25 18 -41 16 -64 -7z"/>
<path d="M8056 6061 c-37 -41 0 -78 44 -43 19 16 21 22 11 40 -14 27 -33 28
-55 3z"/>
<path d="M9370 5741 c-15 -29 -12 -49 9 -61 26 -14 50 -3 57 26 12 46 -44 75
-66 35z"/>
<path d="M8490 5650 c-43 -43 -15 -120 42 -120 42 0 56 10 68 45 11 35 2 70
-24 87 -21 14 -66 8 -86 -12z"/>
<path d="M8104 5645 c-24 -24 -25 -28 -11 -48 8 -12 23 -23 34 -25 45 -7 73
67 34 88 -27 14 -29 13 -57 -15z"/>
<path d="M5940 4971 c-24 -46 2 -76 52 -59 44 15 30 78 -17 78 -14 0 -29 -8
-35 -19z"/>
<path d="M8976 4794 c-19 -18 -21 -55 -4 -72 18 -18 63 -14 81 6 22 24 21 45
-1 65 -23 21 -56 22 -76 1z"/>
<path d="M7819 4894 c-12 -34 11 -74 44 -74 30 0 47 18 47 50 0 34 -17 50 -52
50 -22 0 -31 -6 -39 -26z"/>
<path d="M2908 4323 c-27 -7 -30 -37 -26 -225 3 -156 5 -178 26 -220 35 -70
93 -131 164 -169 l63 -34 172 0 c200 0 204 2 206 83 1 28 -2 54 -6 59 -5 4
-52 7 -105 5 -187 -5 -265 27 -329 135 -26 45 -30 79 -42 319 -1 5 -10 20 -21
32 -20 21 -58 27 -102 15z"/>
<path d="M4750 4013 c0 -5 4 -14 9 -21 6 -10 10 -9 14 7 3 14 0 21 -9 21 -8 0
-14 -3 -14 -7z"/>
<path d="M8484 4645 c-21 -32 -15 -58 18 -69 34 -12 58 6 58 43 0 52 -48 69
-76 26z"/>
<path d="M9233 4450 c-51 -21 -59 -97 -14 -129 62 -44 131 -11 131 61 0 60
-56 92 -117 68z"/>
<path d="M5745 4264 c-22 -23 -15 -58 12 -62 26 -4 47 29 38 58 -8 24 -28 26
-50 4z"/>
<path d="M8859 3991 c-20 -16 -22 -23 -13 -38 19 -31 60 -40 84 -18 24 22 25
38 4 59 -21 21 -47 20 -75 -3z"/>
<path d="M8374 3985 c-35 -54 18 -116 70 -81 14 9 29 28 32 42 14 57 -69 89
-102 39z"/>
<path d="M3802 2890 c-19 -38 -39 -88 -47 -113 l-13 -44 91 -6 c51 -3 94 -3
96 -1 2 2 -5 27 -17 56 -34 86 -69 168 -73 172 -2 2 -19 -27 -37 -64z"/>
<path d="M6266 2945 c-4 -15 -25 -67 -47 -117 -23 -49 -39 -91 -37 -93 1 -1
45 -6 96 -10 68 -5 92 -4 92 5 0 13 -81 221 -91 233 -3 5 -9 -4 -13 -18z"/>
<path d="M2622 2836 c-13 -46 -12 -49 22 -44 l25 3 -18 40 -18 40 -11 -39z"/>
<path d="M7416 2846 c-3 -13 -9 -31 -12 -40 -5 -13 1 -16 25 -16 36 0 36 0 17
45 -18 41 -22 43 -30 11z"/>
<path d="M2840 2870 c0 -37 2 -40 29 -40 41 0 75 30 67 58 -6 18 -15 22 -52
22 l-44 0 0 -40z"/>
<path d="M3090 2881 c0 -11 -3 -26 -6 -35 -10 -26 51 -21 70 5 21 30 10 49
-30 49 -27 0 -34 -4 -34 -19z"/>
<path d="M7640 2865 c0 -46 0 -47 27 -40 40 10 54 25 51 54 -3 22 -9 26 -40
29 l-38 3 0 -46z"/>
<path d="M7870 2865 c0 -39 3 -45 21 -45 31 0 59 19 59 40 0 26 -27 50 -56 50
-22 0 -24 -4 -24 -45z"/>
<path d="M4415 2176 c-107 -40 -145 -171 -78 -273 81 -126 257 -122 323 8 42
81 17 190 -55 244 -43 33 -130 43 -190 21z"/>
<path d="M7880 2096 l0 -96 84 0 c101 0 142 13 161 51 22 41 18 65 -14 101
-29 33 -31 33 -130 36 l-101 4 0 -96z"/>
<path d="M2511 2183 l-34 -4 7 -61 c3 -34 6 -74 6 -89 l0 -29 89 0 c81 0 92 2
120 25 38 33 45 56 31 101 -19 57 -83 73 -219 57z"/>
<path d="M4049 1264 c-9 -3 -20 -19 -23 -37 -4 -18 -22 -68 -41 -113 -19 -44
-38 -95 -41 -112 -6 -31 -5 -32 25 -32 27 0 34 5 42 30 10 28 14 30 65 30 48
0 55 -3 71 -27 10 -16 22 -31 28 -35 15 -12 45 -9 45 3 0 6 -22 61 -49 123
-27 61 -53 125 -58 141 -9 30 -29 38 -64 29z m28 -182 c-16 -2 -31 -1 -34 2
-3 3 2 27 12 53 l18 48 17 -50 17 -50 -30 -3z"/>
<path d="M4304 1263 c-20 -4 -22 -11 -26 -116 -5 -153 -2 -174 28 -180 14 -2
26 -1 29 3 8 13 7 294 -1 296 -5 0 -19 -1 -30 -3z"/>
</g>
</svg>
